<?xml version="1.0" encoding="utf-8"?>
<!-- Generator: Adobe Illustrator 26.3.1, SVG Export Plug-In . SVG Version: 6.00 Build 0)  -->
<svg version="1.1" id="Livello_1" xmlns="http://www.w3.org/2000/svg" xmlns:xlink="http://www.w3.org/1999/xlink" x="0px" y="0px"
	 viewBox="0 0 5669.29 1383.33" style="enable-background:new 0 0 5669.29 1383.33;" xml:space="preserve">
<style type="text/css">
	.st0{fill:#1d4ed8;}
</style>
<g>
	<g>
		<polygon class="st0" points="204.23,518.07 204.23,389.53 24.75,711.01 204.23,1030.67 204.23,902.53 96.55,711.01 		"/>
	</g>
	<g>
		<path class="st0" d="M3583.62,191.46c-113.97-81.33-254.44-122.02-421.41-122.02h-791.03L2145.1,386.45h1052.65
			c51.89,0,95.61,12.45,131.16,37.29c35.53,24.84,53.32,58.72,53.32,101.63c0,42.93-17.78,77.39-53.32,103.36
			c-35.55,25.98-79.27,38.97-131.16,38.97H2145.1v622.63h377.4V984.72h638.04c168.09,0,309.12-40.67,423.09-122.04
			c118.46-85.85,177.68-197.72,177.68-335.61C3761.3,389.21,3702.07,277.36,3583.62,191.46z"/>
	</g>
	<g>
		<path class="st0" d="M935.17,470.18c68.27-55.81,154.3-83.73,258.09-83.73h612.64L2049.6,69.44h-856.34
			c-215.51,0-392.08,55.32-529.7,165.94c-108.84,87.5-174.64,196.14-197.42,325.97H328.96V389.53L149.48,711.01l179.48,319.67
			V861.96l159.27,0.02c33.03,95.19,92.3,178.98,177.86,251.42c139.33,117.96,315.05,176.94,527.16,176.94h819.1V560.4l-1151.95,0.95
			C877.44,527.38,902.36,496.99,935.17,470.18z M1633.26,861.16v113.8h-440c-104.93,0-191.25-26.77-258.95-80.32
			c-12.98-10.27-24.73-21.17-35.23-32.66L1633.26,861.16z"/>
	</g>
	<g>
		<path class="st0" d="M3915.53,1167.82c-18.76,0-36.18-2.85-52.26-8.56c-16.08-5.71-30.06-13.78-41.88-24.2
			c-11.83-10.42-21-22.94-27.47-37.59c-6.48-14.63-9.71-30.9-9.71-48.76c0-17.87,3.35-34.25,10.06-49.14
			c6.69-14.89,15.85-27.66,27.46-38.34c11.6-10.67,25.46-18.98,41.54-24.94c16.08-5.95,33.5-8.93,52.26-8.93h225.12l89.12-129.54
			h-314.24c-38.87,0-74.83,5.84-107.88,17.49c-33.06,11.67-61.53,28.3-85.42,49.89c-23.91,21.59-42.67,47.4-56.28,77.41
			c-13.64,30.04-20.44,63.17-20.44,99.39c0,36.23,6.8,69.87,20.44,100.88c13.62,31.03,32.37,57.82,56.28,80.4
			c23.89,22.6,52.36,40.33,85.42,53.23c33.06,12.91,69.01,19.35,107.88,19.35h225.12l89.12-128.05H3915.53z"/>
	</g>
	<g>
		<path class="st0" d="M4616.72,805.63c-14.08-10.67-31.62-16.01-52.6-16.01c-21.9,0-39.98,5.72-54.27,17.12
			c-14.31,11.42-26.15,24.32-35.51,38.71l-287.46,450.42h164.15l210.4-330.55l80.4,131.77c7.6,11.93,15.54,24.7,23.79,38.34
			c8.26,13.67,15.53,24.95,21.78,33.88c-10.72-0.98-23.34-1.48-37.86-1.48c-14.51,0-28.48,0-41.87,0h-112.56l-83.78,128.05h521.29
			l-280.06-450.42C4642.73,829.58,4630.78,816.31,4616.72,805.63z"/>
	</g>
	<g>
		<path class="st0" d="M5569.15,1199.09c-15.65-17.37-28.12-31.01-37.54-40.95c-9.35-9.92-17.84-18.12-25.44-24.57
			c18.3-3.97,34.74-10.79,49.23-20.47c14.54-9.69,26.8-21.47,36.86-35.36c10.05-13.89,17.75-29.52,23.13-46.91
			c5.35-17.37,8.01-35.73,8.01-55.09c0-35.73-7.24-65.01-21.77-87.85c-14.5-22.82-32.94-40.95-55.24-54.35
			c-22.38-13.39-47.16-22.71-74.39-27.92c-27.25-5.21-53.6-7.82-79.06-7.82h-288.11l-90.46,129.54h389.95
			c24.13,0,42.88,4.84,56.28,14.52c13.38,9.68,20.11,24.19,20.11,43.56c0,17.38-7.39,31.01-22.13,40.94
			c-14.74,9.94-32.83,14.89-54.26,14.89h-389.95v254.61h138.69V1164.1h213.08l99.83,131.77h185.58L5569.15,1199.09z"/>
	</g>
</g>
</svg>
